<svg width="21" height="21" viewBox="0 0 21 21" fill="none" xmlns="http://www.w3.org/2000/svg">
<path fill-rule="evenodd" clip-rule="evenodd" d="M8.74166 6.68197C8.7303 6.68954 6.37359 9.06517 6.3635 9.074L4.70573 7.40866C-0.157821 12.9648 1.59457 16.3144 1.40659 16.1239C-0.991754 13.7281 0.283746 8.56683 4.25281 4.59777C8.22187 0.628706 13.3844 -0.646794 15.7777 1.74903C15.9644 1.93322 12.6237 0.145504 7.06244 5.02041L8.74166 6.68197Z" fill="#CB6CE6"/>
<path d="M1.35952 2.34208L2.46875 1.23535L3.66102 2.43032L2.55179 3.53705L1.35952 2.34208Z" fill="#CB6CE6"/>
<path fill-rule="evenodd" clip-rule="evenodd" d="M9.11335 8.25293L19.9431 19.0852C20.2749 19.4158 20.28 19.9507 19.9545 20.2749C19.629 20.5992 19.0953 20.5954 18.7635 20.2623L7.93373 9.43255L9.11335 8.25293Z" fill="#CB6CE6"/>
</svg>
